<svg width="38" height="29" viewBox="0 0 38 29" fill="none" xmlns="http://www.w3.org/2000/svg">
<path d="M16.6246 2.64145C16.816 2.38676 16.7797 2.02433 16.5218 1.83606C14.92 0.666591 13.0735 0 11.1077 0C4.97308 0 0 6.49187 0 14.5C0 21.6947 4.01406 27.6655 9.27817 28.8043C9.62459 28.8792 9.93846 28.6071 9.93846 28.2553V22.7391C9.93846 22.5109 9.80152 22.3076 9.60378 22.1911C7.75857 21.1038 6.43077 18.0711 6.43077 14.5C6.43077 10.0154 8.5247 6.38 11.1077 6.38C11.8295 6.38 12.5131 6.6639 13.1235 7.17089C13.4838 7.4701 14.0855 7.36554 14.2551 6.93086C14.8704 5.35374 15.6721 3.90929 16.6246 2.64145Z" fill="#fff"/>
<path d="M12.6116 22.1911C12.4139 22.3076 12.2769 22.5109 12.2769 22.7391V28.2553C12.2769 28.6071 12.5908 28.8792 12.9372 28.8043C18.2013 27.6655 22.2154 21.6947 22.2154 14.5C22.2154 10.0155 24.3093 6.38 26.8923 6.38C29.4753 6.38 31.5692 10.0155 31.5692 14.5C31.5692 18.9845 29.4753 22.62 26.8923 22.62C26.1705 22.62 25.4869 22.3361 24.8765 21.8291C24.5162 21.5299 23.9145 21.6345 23.7449 22.0691C23.1296 23.6463 22.3279 25.0907 21.3754 26.3585C21.184 26.6132 21.2203 26.9757 21.4782 27.1639C23.08 28.3334 24.9265 29 26.8923 29C33.0269 29 38 22.5081 38 14.5C38 6.49187 33.0269 0 26.8923 0C20.7577 0 15.7846 6.49187 15.7846 14.5C15.7846 18.0711 14.4568 21.1038 12.6116 22.1911Z" fill="#fff"/>
</svg>
